<mxfile host="app.diagrams.net" modified="2023-11-04T14:59:26.633Z" agent="Mozilla/5.0 (Windows NT 10.0; Win64; x64) AppleWebKit/537.36 (KHTML, like Gecko) Chrome/119.0.0.0 Safari/537.36" etag="tWp0u4d_FwkTUbryzMER" version="22.0.8" type="github">
  <diagram name="Page-1" id="12e1b939-464a-85fe-373e-61e167be1490">
    <mxGraphModel dx="1728" dy="630" grid="1" gridSize="10" guides="1" tooltips="1" connect="1" arrows="1" fold="1" page="1" pageScale="1.5" pageWidth="1169" pageHeight="826" background="none" math="0" shadow="0">
      <root>
        <mxCell id="0" />
        <mxCell id="1" parent="0" />
        <mxCell id="pM2UL4EzBKWQbs61ZJ5b-1" value="" style="whiteSpace=wrap;html=1;rounded=1;shadow=0;strokeWidth=8;fontSize=20;align=center;fillColor=#FED217;strokeColor=#FFFFFF;" vertex="1" parent="1">
          <mxGeometry x="87" y="80" width="280" height="430" as="geometry" />
        </mxCell>
        <mxCell id="pM2UL4EzBKWQbs61ZJ5b-2" value="КОНТЕКСТ ВЫПОЛНЕНИЯ" style="text;html=1;strokeColor=none;fillColor=none;align=center;verticalAlign=middle;whiteSpace=wrap;rounded=0;shadow=0;fontSize=27;fontColor=#FFFFFF;fontStyle=1" vertex="1" parent="1">
          <mxGeometry x="100" y="100" width="250" height="60" as="geometry" />
        </mxCell>
        <mxCell id="pM2UL4EzBKWQbs61ZJ5b-3" value="Формировании контекста обработки данных. Он содержит информацию о формате исходных данных, поступивших в обработку (CSV, JSON, XML, YAML), поток (stream) этих данных, ссылку на DI и т.п." style="text;html=1;strokeColor=none;fillColor=none;align=center;verticalAlign=middle;whiteSpace=wrap;rounded=0;shadow=0;fontSize=14;fontColor=#FFFFFF;" vertex="1" parent="1">
          <mxGeometry x="100" y="370" width="250" height="120" as="geometry" />
        </mxCell>
        <mxCell id="pM2UL4EzBKWQbs61ZJ5b-4" value="" style="line;strokeWidth=2;html=1;rounded=0;shadow=0;fontSize=27;align=center;fillColor=none;strokeColor=#FFFFFF;" vertex="1" parent="1">
          <mxGeometry x="107" y="160" width="240" height="10" as="geometry" />
        </mxCell>
        <mxCell id="pM2UL4EzBKWQbs61ZJ5b-5" value="" style="line;strokeWidth=2;html=1;rounded=0;shadow=0;fontSize=27;align=center;fillColor=none;strokeColor=#FFFFFF;" vertex="1" parent="1">
          <mxGeometry x="107" y="360" width="240" height="10" as="geometry" />
        </mxCell>
        <mxCell id="pM2UL4EzBKWQbs61ZJ5b-6" value="СТАРТ" style="ellipse;whiteSpace=wrap;html=1;rounded=0;shadow=0;strokeWidth=6;fontSize=14;align=center;fillColor=#BFB4A9;strokeColor=#FFFFFF;fontColor=#FFFFFF;" vertex="1" parent="1">
          <mxGeometry x="30" y="220" width="115" height="115" as="geometry" />
        </mxCell>
        <mxCell id="pM2UL4EzBKWQbs61ZJ5b-7" value="" style="html=1;shadow=0;dashed=0;align=center;verticalAlign=middle;shape=mxgraph.arrows2.stylisedArrow;dy=0.6;dx=40;notch=15;feather=0.4;rounded=0;strokeWidth=1;fontSize=27;strokeColor=none;fillColor=#fff2cc;" vertex="1" parent="1">
          <mxGeometry x="177" y="248" width="100" height="60" as="geometry" />
        </mxCell>
        <mxCell id="pM2UL4EzBKWQbs61ZJ5b-9" value="" style="whiteSpace=wrap;html=1;rounded=1;shadow=0;strokeWidth=8;fontSize=20;align=center;fillColor=#FFC001;strokeColor=#FFFFFF;" vertex="1" parent="1">
          <mxGeometry x="367" y="80" width="280" height="430" as="geometry" />
        </mxCell>
        <mxCell id="pM2UL4EzBKWQbs61ZJ5b-10" value="КОНВЕЙЕР ПАРСИНГА" style="text;html=1;strokeColor=none;fillColor=none;align=center;verticalAlign=middle;whiteSpace=wrap;rounded=0;shadow=0;fontSize=27;fontColor=#FFFFFF;fontStyle=1" vertex="1" parent="1">
          <mxGeometry x="367" y="100" width="280" height="60" as="geometry" />
        </mxCell>
        <mxCell id="pM2UL4EzBKWQbs61ZJ5b-11" value="Данные поступают на конвейер обработки, на котором зарегистрированы парсеры (&lt;i&gt;middlewares&lt;/i&gt;) для CSV, JSON, XML и YAML. Парсер, соответствующий нужному формату, выполняет парсинг данных." style="text;html=1;strokeColor=none;fillColor=none;align=center;verticalAlign=middle;whiteSpace=wrap;rounded=0;shadow=0;fontSize=14;fontColor=#FFFFFF;" vertex="1" parent="1">
          <mxGeometry x="380" y="370" width="250" height="120" as="geometry" />
        </mxCell>
        <mxCell id="pM2UL4EzBKWQbs61ZJ5b-12" value="" style="line;strokeWidth=2;html=1;rounded=0;shadow=0;fontSize=27;align=center;fillColor=none;strokeColor=#FFFFFF;" vertex="1" parent="1">
          <mxGeometry x="387" y="160" width="240" height="10" as="geometry" />
        </mxCell>
        <mxCell id="pM2UL4EzBKWQbs61ZJ5b-13" value="" style="line;strokeWidth=2;html=1;rounded=0;shadow=0;fontSize=27;align=center;fillColor=none;strokeColor=#FFFFFF;" vertex="1" parent="1">
          <mxGeometry x="387" y="360" width="240" height="10" as="geometry" />
        </mxCell>
        <mxCell id="pM2UL4EzBKWQbs61ZJ5b-14" value="ПАРСИНГ" style="ellipse;whiteSpace=wrap;html=1;rounded=0;shadow=0;strokeWidth=6;fontSize=14;align=center;fillColor=#397DAA;strokeColor=#FFFFFF;fontColor=#FFFFFF;" vertex="1" parent="1">
          <mxGeometry x="310" y="220" width="115" height="115" as="geometry" />
        </mxCell>
        <mxCell id="pM2UL4EzBKWQbs61ZJ5b-15" value="" style="html=1;shadow=0;dashed=0;align=center;verticalAlign=middle;shape=mxgraph.arrows2.stylisedArrow;dy=0.6;dx=40;notch=15;feather=0.4;rounded=0;strokeWidth=1;fontSize=27;strokeColor=none;fillColor=#fff2cc;" vertex="1" parent="1">
          <mxGeometry x="457" y="248" width="100" height="60" as="geometry" />
        </mxCell>
        <mxCell id="pM2UL4EzBKWQbs61ZJ5b-16" value="" style="whiteSpace=wrap;html=1;rounded=1;shadow=0;strokeWidth=8;fontSize=20;align=center;fillColor=#FFB001;strokeColor=#FFFFFF;" vertex="1" parent="1">
          <mxGeometry x="647" y="80" width="280" height="430" as="geometry" />
        </mxCell>
        <mxCell id="pM2UL4EzBKWQbs61ZJ5b-17" value="КОНВЕЙЕР ПРЕОБРАЗОВАНИЯ" style="text;html=1;strokeColor=none;fillColor=none;align=center;verticalAlign=middle;whiteSpace=wrap;rounded=0;shadow=0;fontSize=27;fontColor=#FFFFFF;fontStyle=1" vertex="1" parent="1">
          <mxGeometry x="647" y="105" width="280" height="50" as="geometry" />
        </mxCell>
        <mxCell id="pM2UL4EzBKWQbs61ZJ5b-18" value="Конвейер преобразования (доработки) исходных данных. На этом этапе можно редактировать исходные данные до того, как они будут переданы в обработку." style="text;html=1;strokeColor=none;fillColor=none;align=center;verticalAlign=middle;whiteSpace=wrap;rounded=0;shadow=0;fontSize=14;fontColor=#FFFFFF;" vertex="1" parent="1">
          <mxGeometry x="660" y="370" width="250" height="120" as="geometry" />
        </mxCell>
        <mxCell id="pM2UL4EzBKWQbs61ZJ5b-19" value="" style="line;strokeWidth=2;html=1;rounded=0;shadow=0;fontSize=27;align=center;fillColor=none;strokeColor=#FFFFFF;" vertex="1" parent="1">
          <mxGeometry x="665" y="160" width="240" height="10" as="geometry" />
        </mxCell>
        <mxCell id="pM2UL4EzBKWQbs61ZJ5b-20" value="" style="line;strokeWidth=2;html=1;rounded=0;shadow=0;fontSize=27;align=center;fillColor=none;strokeColor=#FFFFFF;" vertex="1" parent="1">
          <mxGeometry x="667" y="360" width="240" height="10" as="geometry" />
        </mxCell>
        <mxCell id="pM2UL4EzBKWQbs61ZJ5b-21" value="ПРЕОБРА-ЗОВАНИЕ" style="ellipse;whiteSpace=wrap;html=1;rounded=0;shadow=0;strokeWidth=6;fontSize=14;align=center;fillColor=#EF9353;strokeColor=#FFFFFF;fontColor=#FFFFFF;" vertex="1" parent="1">
          <mxGeometry x="600" y="220" width="115" height="115" as="geometry" />
        </mxCell>
        <mxCell id="pM2UL4EzBKWQbs61ZJ5b-22" value="" style="html=1;shadow=0;dashed=0;align=center;verticalAlign=middle;shape=mxgraph.arrows2.stylisedArrow;dy=0.6;dx=40;notch=15;feather=0.4;rounded=0;strokeWidth=1;fontSize=27;strokeColor=none;fillColor=#fff2cc;" vertex="1" parent="1">
          <mxGeometry x="737" y="248" width="100" height="60" as="geometry" />
        </mxCell>
        <mxCell id="pM2UL4EzBKWQbs61ZJ5b-23" value="" style="whiteSpace=wrap;html=1;rounded=1;shadow=0;strokeWidth=8;fontSize=20;align=center;fillColor=#FE9900;strokeColor=#FFFFFF;" vertex="1" parent="1">
          <mxGeometry x="927" y="80" width="280" height="430" as="geometry" />
        </mxCell>
        <mxCell id="pM2UL4EzBKWQbs61ZJ5b-24" value="КОНВЕЙЕР ВЕРИФИКАЦИИ" style="text;html=1;strokeColor=none;fillColor=none;align=center;verticalAlign=middle;whiteSpace=wrap;rounded=0;shadow=0;fontSize=27;fontColor=#FFFFFF;fontStyle=1" vertex="1" parent="1">
          <mxGeometry x="927" y="100" width="280" height="60" as="geometry" />
        </mxCell>
        <mxCell id="pM2UL4EzBKWQbs61ZJ5b-25" value="Конвейер верификации данных, подлежащих обработке." style="text;html=1;strokeColor=none;fillColor=none;align=center;verticalAlign=middle;whiteSpace=wrap;rounded=0;shadow=0;fontSize=14;fontColor=#FFFFFF;" vertex="1" parent="1">
          <mxGeometry x="940" y="370" width="250" height="120" as="geometry" />
        </mxCell>
        <mxCell id="pM2UL4EzBKWQbs61ZJ5b-26" value="" style="line;strokeWidth=2;html=1;rounded=0;shadow=0;fontSize=27;align=center;fillColor=none;strokeColor=#FFFFFF;" vertex="1" parent="1">
          <mxGeometry x="947" y="160" width="240" height="10" as="geometry" />
        </mxCell>
        <mxCell id="pM2UL4EzBKWQbs61ZJ5b-27" value="" style="line;strokeWidth=2;html=1;rounded=0;shadow=0;fontSize=27;align=center;fillColor=none;strokeColor=#FFFFFF;" vertex="1" parent="1">
          <mxGeometry x="947" y="360" width="240" height="10" as="geometry" />
        </mxCell>
        <mxCell id="pM2UL4EzBKWQbs61ZJ5b-28" value="ВЕРИФИКАЦИЯ" style="ellipse;whiteSpace=wrap;html=1;rounded=0;shadow=0;strokeWidth=6;fontSize=14;align=center;fillColor=#68B85C;strokeColor=#FFFFFF;fontColor=#FFFFFF;" vertex="1" parent="1">
          <mxGeometry x="870" y="220" width="115" height="115" as="geometry" />
        </mxCell>
        <mxCell id="pM2UL4EzBKWQbs61ZJ5b-29" value="" style="html=1;shadow=0;dashed=0;align=center;verticalAlign=middle;shape=mxgraph.arrows2.stylisedArrow;dy=0.6;dx=40;notch=15;feather=0.4;rounded=0;strokeWidth=1;fontSize=27;strokeColor=none;fillColor=#fff2cc;" vertex="1" parent="1">
          <mxGeometry x="1017" y="248" width="100" height="60" as="geometry" />
        </mxCell>
        <mxCell id="pM2UL4EzBKWQbs61ZJ5b-30" value="" style="whiteSpace=wrap;html=1;rounded=1;shadow=0;strokeWidth=8;fontSize=20;align=center;fillColor=#FE9900;strokeColor=#FFFFFF;" vertex="1" parent="1">
          <mxGeometry x="1207" y="80" width="280" height="430" as="geometry" />
        </mxCell>
        <mxCell id="pM2UL4EzBKWQbs61ZJ5b-31" value="ИСКЛЮЧЕНИЕ ДУБЛЕЙ" style="text;html=1;strokeColor=none;fillColor=none;align=center;verticalAlign=middle;whiteSpace=wrap;rounded=0;shadow=0;fontSize=27;fontColor=#FFFFFF;fontStyle=1" vertex="1" parent="1">
          <mxGeometry x="1207" y="100" width="280" height="60" as="geometry" />
        </mxCell>
        <mxCell id="pM2UL4EzBKWQbs61ZJ5b-32" value="Выявление повторяющихся записей. Обнаруженные дубли исключаются из набора, подлежащего обработке." style="text;html=1;strokeColor=none;fillColor=none;align=center;verticalAlign=middle;whiteSpace=wrap;rounded=0;shadow=0;fontSize=14;fontColor=#FFFFFF;" vertex="1" parent="1">
          <mxGeometry x="1220" y="370" width="250" height="120" as="geometry" />
        </mxCell>
        <mxCell id="pM2UL4EzBKWQbs61ZJ5b-33" value="" style="line;strokeWidth=2;html=1;rounded=0;shadow=0;fontSize=27;align=center;fillColor=none;strokeColor=#FFFFFF;" vertex="1" parent="1">
          <mxGeometry x="1227" y="160" width="240" height="10" as="geometry" />
        </mxCell>
        <mxCell id="pM2UL4EzBKWQbs61ZJ5b-34" value="" style="line;strokeWidth=2;html=1;rounded=0;shadow=0;fontSize=27;align=center;fillColor=none;strokeColor=#FFFFFF;" vertex="1" parent="1">
          <mxGeometry x="1227" y="360" width="240" height="10" as="geometry" />
        </mxCell>
        <mxCell id="pM2UL4EzBKWQbs61ZJ5b-35" value="" style="html=1;shadow=0;dashed=0;align=center;verticalAlign=middle;shape=mxgraph.arrows2.stylisedArrow;dy=0.6;dx=40;notch=15;feather=0.4;rounded=0;strokeWidth=1;fontSize=27;strokeColor=none;fillColor=#fff2cc;" vertex="1" parent="1">
          <mxGeometry x="1297" y="248" width="100" height="60" as="geometry" />
        </mxCell>
        <mxCell id="pM2UL4EzBKWQbs61ZJ5b-36" value="ИСКЛЮЧЕНИЕ ДУБЛЕЙ" style="ellipse;whiteSpace=wrap;html=1;rounded=0;shadow=0;strokeWidth=6;fontSize=14;align=center;fillColor=#BF639A;strokeColor=#FFFFFF;fontColor=#FFFFFF;" vertex="1" parent="1">
          <mxGeometry x="1150" y="220" width="115" height="115" as="geometry" />
        </mxCell>
      </root>
    </mxGraphModel>
  </diagram>
</mxfile>
